<svg width="98" height="117" viewBox="0 0 98 117" fill="none" xmlns="http://www.w3.org/2000/svg">
<path fill-rule="evenodd" clip-rule="evenodd" d="M0.185304 0.399994C-0.0194548 3.87828 -0.0553966 7.44755 0.0818356 11.1318C0.995628 35.6553 9.51927 65.2679 18.3206 83.7192C27.122 102.171 36.2011 109.458 40.7864 113.147C45.3717 116.834 45.4621 116.92 45.5612 116.965C45.6113 116.987 45.6647 116.998 46.9009 117H47.0163H47.1394C48.3549 116.998 50.5408 116.99 54.4977 116.974C63.2293 116.939 80.5859 116.869 89.2762 116.836C97.9665 116.8 97.9883 116.8 97.9992 116.799C98.0101 116.797 98.0101 116.792 91.0744 104.348C84.1387 91.9033 70.2685 67.019 63.6389 44.3966C59.0841 28.8568 57.9448 14.3866 60.7374 0.399994H0.185304V0.399994Z" fill="#00A0E3"/>
</svg>
