<svg width="505" height="307" viewBox="0 0 505 307" fill="none" xmlns="http://www.w3.org/2000/svg">
<path d="M371.667 8.988C371.667 10.024 371.489 10.9293 371.135 11.704C370.789 12.4693 370.276 13.0667 369.595 13.496C368.913 13.9253 368.069 14.14 367.061 14.14C366.025 14.14 365.161 13.9253 364.471 13.496C363.789 13.0667 363.281 12.4647 362.945 11.69C362.609 10.9153 362.441 10.01 362.441 8.974C362.441 7.94733 362.609 7.05133 362.945 6.286C363.281 5.52067 363.789 4.92333 364.471 4.494C365.161 4.06467 366.029 3.85 367.075 3.85C368.073 3.85 368.913 4.06467 369.595 4.494C370.276 4.914 370.789 5.51133 371.135 6.286C371.489 7.05133 371.667 7.952 371.667 8.988ZM363.771 8.988C363.771 10.248 364.037 11.242 364.569 11.97C365.101 12.6887 365.931 13.048 367.061 13.048C368.199 13.048 369.03 12.6887 369.553 11.97C370.075 11.242 370.337 10.248 370.337 8.988C370.337 7.728 370.075 6.74333 369.553 6.034C369.03 5.31533 368.204 4.956 367.075 4.956C365.945 4.956 365.11 5.31533 364.569 6.034C364.037 6.74333 363.771 7.728 363.771 8.988ZM373.882 14V4.004H381.386V14H380.14V5.11H375.142V14H373.882ZM384.136 4.004H385.312V9.492C385.312 9.8 385.308 10.1453 385.298 10.528C385.289 10.9107 385.275 11.2607 385.256 11.578C385.247 11.8953 385.233 12.1287 385.214 12.278H385.27L390.772 4.004H392.172V14H390.996V8.568C390.996 8.22267 391.001 7.854 391.01 7.462C391.029 7.07 391.048 6.71067 391.066 6.384C391.085 6.05733 391.099 5.824 391.108 5.684H391.052L385.536 14H384.136V4.004ZM399.152 4.97C398.079 4.97 397.234 5.32933 396.618 6.048C396.002 6.76667 395.694 7.75133 395.694 9.002C395.694 10.2433 395.979 11.228 396.548 11.956C397.127 12.6747 397.99 13.034 399.138 13.034C399.577 13.034 399.992 12.9967 400.384 12.922C400.776 12.8473 401.159 12.754 401.532 12.642V13.734C401.159 13.874 400.772 13.9767 400.37 14.042C399.978 14.1073 399.507 14.14 398.956 14.14C397.939 14.14 397.09 13.93 396.408 13.51C395.727 13.09 395.214 12.4927 394.868 11.718C394.532 10.9433 394.364 10.0333 394.364 8.988C394.364 7.98 394.546 7.09333 394.91 6.328C395.284 5.55333 395.83 4.95133 396.548 4.522C397.267 4.08333 398.14 3.864 399.166 3.864C400.221 3.864 401.14 4.06 401.924 4.452L401.42 5.516C401.112 5.376 400.767 5.25 400.384 5.138C400.011 5.026 399.6 4.97 399.152 4.97ZM409.986 14L408.782 10.906H404.82L403.63 14H402.356L406.262 3.962H407.396L411.288 14H409.986ZM408.404 9.786L407.284 6.762C407.256 6.68733 407.209 6.552 407.144 6.356C407.079 6.16 407.013 5.95933 406.948 5.754C406.892 5.53933 406.845 5.376 406.808 5.264C406.743 5.55333 406.668 5.838 406.584 6.118C406.5 6.38867 406.43 6.60333 406.374 6.762L405.24 9.786H408.404ZM420.3 14H419.04V9.338H413.916V14H412.656V4.004H413.916V8.232H419.04V4.004H420.3V14ZM423.046 4.004H424.222V9.492C424.222 9.8 424.218 10.1453 424.208 10.528C424.199 10.9107 424.185 11.2607 424.166 11.578C424.157 11.8953 424.143 12.1287 424.124 12.278H424.18L429.682 4.004H431.082V14H429.906V8.568C429.906 8.22267 429.911 7.854 429.92 7.462C429.939 7.07 429.958 6.71067 429.976 6.384C429.995 6.05733 430.009 5.824 430.018 5.684H429.962L424.446 14H423.046V4.004ZM439.365 14H433.779V4.004H439.365V5.11H435.039V8.232H439.113V9.324H435.039V12.894H439.365V14ZM444.917 12.8242H445.922V5.24316L443.823 6.38477V4.95605L446.708 3.34277H447.255V12.8242H448.273V14H444.917V12.8242ZM449.77 10.6094V9.43359H453.537V10.6094H449.77ZM464.253 8.988C464.253 10.024 464.075 10.9293 463.721 11.704C463.375 12.4693 462.862 13.0667 462.181 13.496C461.499 13.9253 460.655 14.14 459.647 14.14C458.611 14.14 457.747 13.9253 457.057 13.496C456.375 13.0667 455.867 12.4647 455.531 11.69C455.195 10.9153 455.027 10.01 455.027 8.974C455.027 7.94733 455.195 7.05133 455.531 6.286C455.867 5.52067 456.375 4.92333 457.057 4.494C457.747 4.06467 458.615 3.85 459.661 3.85C460.659 3.85 461.499 4.06467 462.181 4.494C462.862 4.914 463.375 5.51133 463.721 6.286C464.075 7.05133 464.253 7.952 464.253 8.988ZM456.357 8.988C456.357 10.248 456.623 11.242 457.155 11.97C457.687 12.6887 458.517 13.048 459.647 13.048C460.785 13.048 461.616 12.6887 462.139 11.97C462.661 11.242 462.923 10.248 462.923 8.988C462.923 7.728 462.661 6.74333 462.139 6.034C461.616 5.31533 460.79 4.956 459.661 4.956C458.531 4.956 457.696 5.31533 457.155 6.034C456.623 6.74333 456.357 7.728 456.357 8.988ZM466.482 4.004H467.658V9.492C467.658 9.8 467.653 10.1453 467.644 10.528C467.635 10.9107 467.621 11.2607 467.602 11.578C467.593 11.8953 467.579 12.1287 467.56 12.278H467.616L473.118 4.004H474.518V14H473.342V8.568C473.342 8.22267 473.347 7.854 473.356 7.462C473.375 7.07 473.393 6.71067 473.412 6.384C473.431 6.05733 473.445 5.824 473.454 5.684H473.398L467.882 14H466.482V4.004ZM473.286 0.895999C473.221 1.596 472.983 2.128 472.572 2.492C472.171 2.84667 471.527 3.024 470.64 3.024C469.725 3.024 469.077 2.84667 468.694 2.492C468.321 2.13733 468.111 1.60533 468.064 0.895999H469.212C469.259 1.4 469.389 1.74067 469.604 1.918C469.828 2.086 470.183 2.17 470.668 2.17C471.097 2.17 471.433 2.08133 471.676 1.904C471.928 1.71733 472.077 1.38133 472.124 0.895999H473.286ZM384.136 32V22.004H391.64V32H390.394V23.11H385.396V32H384.136ZM403.098 26.988C403.098 28.024 402.921 28.9293 402.566 29.704C402.221 30.4693 401.708 31.0667 401.026 31.496C400.345 31.9253 399.5 32.14 398.492 32.14C397.456 32.14 396.593 31.9253 395.902 31.496C395.221 31.0667 394.712 30.4647 394.376 29.69C394.04 28.9153 393.872 28.01 393.872 26.974C393.872 25.9473 394.04 25.0513 394.376 24.286C394.712 23.5207 395.221 22.9233 395.902 22.494C396.593 22.0647 397.461 21.85 398.506 21.85C399.505 21.85 400.345 22.0647 401.026 22.494C401.708 22.914 402.221 23.5113 402.566 24.286C402.921 25.0513 403.098 25.952 403.098 26.988ZM395.202 26.988C395.202 28.248 395.468 29.242 396 29.97C396.532 30.6887 397.363 31.048 398.492 31.048C399.631 31.048 400.462 30.6887 400.984 29.97C401.507 29.242 401.768 28.248 401.768 26.988C401.768 25.728 401.507 24.7433 400.984 24.034C400.462 23.3153 399.636 22.956 398.506 22.956C397.377 22.956 396.542 23.3153 396 24.034C395.468 24.7433 395.202 25.728 395.202 26.988ZM411.085 24.342C411.085 25.0233 410.87 25.5647 410.441 25.966C410.012 26.358 409.438 26.61 408.719 26.722V26.778C409.559 26.89 410.198 27.1513 410.637 27.562C411.076 27.9727 411.295 28.5093 411.295 29.172C411.295 30.0493 410.959 30.7633 410.287 31.314C409.615 31.8647 408.607 32.14 407.263 32.14C406.722 32.14 406.204 32.098 405.709 32.014C405.224 31.9393 404.771 31.7993 404.351 31.594V30.446C404.79 30.6513 405.266 30.8147 405.779 30.936C406.302 31.048 406.792 31.104 407.249 31.104C408.145 31.104 408.822 30.936 409.279 30.6C409.746 30.264 409.979 29.788 409.979 29.172C409.979 28.5373 409.708 28.0753 409.167 27.786C408.626 27.4967 407.87 27.352 406.899 27.352H405.471V26.302H406.829C407.818 26.302 408.556 26.1387 409.041 25.812C409.536 25.476 409.783 25.028 409.783 24.468C409.783 23.964 409.596 23.5767 409.223 23.306C408.85 23.0353 408.364 22.9 407.767 22.9C407.142 22.9 406.619 22.9793 406.199 23.138C405.788 23.2967 405.387 23.502 404.995 23.754L404.393 22.9C404.785 22.6107 405.266 22.368 405.835 22.172C406.414 21.9667 407.062 21.864 407.781 21.864C408.864 21.864 409.685 22.0973 410.245 22.564C410.805 23.0307 411.085 23.6233 411.085 24.342ZM413.421 22.004H414.597V27.492C414.597 27.8 414.593 28.1453 414.583 28.528C414.574 28.9107 414.56 29.2607 414.541 29.578C414.532 29.8953 414.518 30.1287 414.499 30.278H414.555L420.057 22.004H421.457V32H420.281V26.568C420.281 26.2227 420.286 25.854 420.295 25.462C420.314 25.07 420.333 24.7107 420.351 24.384C420.37 24.0573 420.384 23.824 420.393 23.684H420.337L414.821 32H413.421V22.004ZM432.876 30.894V34.632H431.672V32H424.154V22.004H425.414V30.88H430.412V22.004H431.658V30.894H432.876ZM434.545 22.004H435.721V27.492C435.721 27.8 435.716 28.1453 435.707 28.528C435.697 28.9107 435.683 29.2607 435.665 29.578C435.655 29.8953 435.641 30.1287 435.623 30.278H435.679L441.181 22.004H442.581V32H441.405V26.568C441.405 26.2227 441.409 25.854 441.419 25.462C441.437 25.07 441.456 24.7107 441.475 24.384C441.493 24.0573 441.507 23.824 441.517 23.684H441.461L435.945 32H434.545V22.004ZM445.291 22.004H446.467V27.492C446.467 27.8 446.462 28.1453 446.453 28.528C446.443 28.9107 446.429 29.2607 446.411 29.578C446.401 29.8953 446.387 30.1287 446.369 30.278H446.425L451.927 22.004H453.327V32H452.151V26.568C452.151 26.2227 452.155 25.854 452.165 25.462C452.183 25.07 452.202 24.7107 452.221 24.384C452.239 24.0573 452.253 23.824 452.263 23.684H452.207L446.691 32H445.291V22.004Z" fill="black"/>
<path d="M381.163 288.988C381.163 290.024 380.986 290.929 380.631 291.704C380.286 292.469 379.772 293.067 379.091 293.496C378.41 293.925 377.565 294.14 376.557 294.14C375.521 294.14 374.658 293.925 373.967 293.496C373.286 293.067 372.777 292.465 372.441 291.69C372.105 290.915 371.937 290.01 371.937 288.974C371.937 287.947 372.105 287.051 372.441 286.286C372.777 285.521 373.286 284.923 373.967 284.494C374.658 284.065 375.526 283.85 376.571 283.85C377.57 283.85 378.41 284.065 379.091 284.494C379.772 284.914 380.286 285.511 380.631 286.286C380.986 287.051 381.163 287.952 381.163 288.988ZM373.267 288.988C373.267 290.248 373.533 291.242 374.065 291.97C374.597 292.689 375.428 293.048 376.557 293.048C377.696 293.048 378.526 292.689 379.049 291.97C379.572 291.242 379.833 290.248 379.833 288.988C379.833 287.728 379.572 286.743 379.049 286.034C378.526 285.315 377.7 284.956 376.571 284.956C375.442 284.956 374.606 285.315 374.065 286.034C373.533 286.743 373.267 287.728 373.267 288.988ZM383.379 294V284.004H390.883V294H389.637V285.11H384.639V294H383.379ZM393.633 284.004H394.809V289.492C394.809 289.8 394.804 290.145 394.795 290.528C394.785 290.911 394.771 291.261 394.753 291.578C394.743 291.895 394.729 292.129 394.711 292.278H394.767L400.269 284.004H401.669V294H400.493V288.568C400.493 288.223 400.497 287.854 400.507 287.462C400.525 287.07 400.544 286.711 400.563 286.384C400.581 286.057 400.595 285.824 400.605 285.684H400.549L395.033 294H393.633V284.004ZM408.649 284.97C407.576 284.97 406.731 285.329 406.115 286.048C405.499 286.767 405.191 287.751 405.191 289.002C405.191 290.243 405.476 291.228 406.045 291.956C406.624 292.675 407.487 293.034 408.635 293.034C409.074 293.034 409.489 292.997 409.881 292.922C410.273 292.847 410.656 292.754 411.029 292.642V293.734C410.656 293.874 410.268 293.977 409.867 294.042C409.475 294.107 409.004 294.14 408.453 294.14C407.436 294.14 406.586 293.93 405.905 293.51C405.224 293.09 404.71 292.493 404.365 291.718C404.029 290.943 403.861 290.033 403.861 288.988C403.861 287.98 404.043 287.093 404.407 286.328C404.78 285.553 405.326 284.951 406.045 284.522C406.764 284.083 407.636 283.864 408.663 283.864C409.718 283.864 410.637 284.06 411.421 284.452L410.917 285.516C410.609 285.376 410.264 285.25 409.881 285.138C409.508 285.026 409.097 284.97 408.649 284.97ZM419.483 294L418.279 290.906H414.317L413.127 294H411.853L415.759 283.962H416.893L420.785 294H419.483ZM417.901 289.786L416.781 286.762C416.753 286.687 416.706 286.552 416.641 286.356C416.575 286.16 416.51 285.959 416.445 285.754C416.389 285.539 416.342 285.376 416.305 285.264C416.239 285.553 416.165 285.838 416.081 286.118C415.997 286.389 415.927 286.603 415.871 286.762L414.737 289.786H417.901ZM429.796 294H428.536V289.338H423.412V294H422.152V284.004H423.412V288.232H428.536V284.004H429.796V294ZM432.543 284.004H433.719V289.492C433.719 289.8 433.714 290.145 433.705 290.528C433.696 290.911 433.682 291.261 433.663 291.578C433.654 291.895 433.64 292.129 433.621 292.278H433.677L439.179 284.004H440.579V294H439.403V288.568C439.403 288.223 439.408 287.854 439.417 287.462C439.436 287.07 439.454 286.711 439.473 286.384C439.492 286.057 439.506 285.824 439.515 285.684H439.459L433.943 294H432.543V284.004ZM448.861 294H443.275V284.004H448.861V285.11H444.535V288.232H448.609V289.324H444.535V292.894H448.861V294ZM458.091 286.344C458.091 286.166 458.052 285.977 457.975 285.776C457.902 285.571 457.785 285.384 457.626 285.216C457.471 285.043 457.273 284.901 457.031 284.792C456.794 284.678 456.514 284.621 456.19 284.621C455.922 284.621 455.675 284.669 455.452 284.765C455.233 284.856 455.015 285.029 454.796 285.284C454.577 285.539 454.459 285.822 454.44 286.132H453.142C453.164 285.735 453.262 285.378 453.436 285.059C453.613 284.74 453.837 284.459 454.105 284.218C454.374 283.976 454.689 283.785 455.049 283.644C455.409 283.502 455.785 283.432 456.177 283.432C456.664 283.432 457.106 283.514 457.503 283.678C457.899 283.837 458.237 284.051 458.515 284.32C458.797 284.585 459.014 284.888 459.164 285.229C459.319 285.571 459.396 285.92 459.396 286.275C459.396 286.494 459.369 286.713 459.314 286.932C459.26 287.15 459.173 287.36 459.055 287.561C458.941 287.757 458.793 287.939 458.61 288.107C458.428 288.276 458.207 288.424 457.947 288.552C458.161 288.634 458.362 288.75 458.549 288.9C458.74 289.046 458.907 289.222 459.048 289.427C459.189 289.632 459.301 289.864 459.383 290.124C459.465 290.384 459.506 290.669 459.506 290.979C459.506 291.425 459.419 291.84 459.246 292.223C459.073 292.601 458.838 292.929 458.542 293.207C458.246 293.485 457.897 293.704 457.496 293.863C457.1 294.018 456.674 294.096 456.218 294.096C455.799 294.096 455.382 294.023 454.967 293.877C454.557 293.727 454.208 293.515 453.921 293.241C453.634 292.968 453.422 292.683 453.285 292.387C453.148 292.09 453.066 291.797 453.039 291.505H454.352C454.484 291.929 454.718 292.261 455.056 292.503C455.397 292.744 455.83 292.865 456.354 292.865C456.591 292.865 456.822 292.817 457.045 292.722C457.273 292.626 457.473 292.494 457.646 292.325C457.82 292.152 457.959 291.951 458.063 291.724C458.168 291.491 458.221 291.238 458.221 290.965C458.221 290.678 458.168 290.418 458.063 290.186C457.959 289.953 457.817 289.757 457.64 289.598C457.462 289.434 457.255 289.308 457.018 289.222C456.785 289.131 456.537 289.085 456.272 289.085H455.685V288.053H456.163C456.464 288.053 456.733 288.009 456.97 287.923C457.211 287.832 457.414 287.709 457.578 287.554C457.742 287.399 457.868 287.219 457.954 287.014C458.045 286.804 458.091 286.581 458.091 286.344ZM460.989 290.609V289.434H464.756V290.609H460.989ZM472.336 294H466.75V284.004H472.336V285.11H468.01V288.232H472.084V289.324H468.01V292.894H472.336V294ZM474.543 284.004H475.719V289.492C475.719 289.8 475.714 290.145 475.705 290.528C475.696 290.911 475.682 291.261 475.663 291.578C475.654 291.895 475.64 292.129 475.621 292.278H475.677L481.179 284.004H482.579V294H481.403V288.568C481.403 288.223 481.408 287.854 481.417 287.462C481.436 287.07 481.454 286.711 481.473 286.384C481.492 286.057 481.506 285.824 481.515 285.684H481.459L475.943 294H474.543V284.004ZM481.347 280.896C481.282 281.596 481.044 282.128 480.633 282.492C480.232 282.847 479.588 283.024 478.701 283.024C477.786 283.024 477.138 282.847 476.755 282.492C476.382 282.137 476.172 281.605 476.125 280.896H477.273C477.32 281.4 477.45 281.741 477.665 281.918C477.889 282.086 478.244 282.17 478.729 282.17C479.158 282.17 479.494 282.081 479.737 281.904C479.989 281.717 480.138 281.381 480.185 280.896H481.347Z" fill="black"/>
<path d="M396.774 114.879C396.774 115.915 396.597 116.82 396.242 117.595C395.897 118.36 395.384 118.957 394.702 119.387C394.021 119.816 393.176 120.031 392.168 120.031C391.132 120.031 390.269 119.816 389.578 119.387C388.897 118.957 388.388 118.355 388.052 117.581C387.716 116.806 387.548 115.901 387.548 114.865C387.548 113.838 387.716 112.942 388.052 112.177C388.388 111.411 388.897 110.814 389.578 110.385C390.269 109.955 391.137 109.741 392.182 109.741C393.181 109.741 394.021 109.955 394.702 110.385C395.384 110.805 395.897 111.402 396.242 112.177C396.597 112.942 396.774 113.843 396.774 114.879ZM388.878 114.879C388.878 116.139 389.144 117.133 389.676 117.861C390.208 118.579 391.039 118.939 392.168 118.939C393.307 118.939 394.138 118.579 394.66 117.861C395.183 117.133 395.444 116.139 395.444 114.879C395.444 113.619 395.183 112.634 394.66 111.925C394.138 111.206 393.312 110.847 392.182 110.847C391.053 110.847 390.218 111.206 389.676 111.925C389.144 112.634 388.878 113.619 388.878 114.879ZM398.99 119.891V109.895H406.494V119.891H405.248V111.001H400.25V119.891H398.99ZM409.244 109.895H410.42V115.383C410.42 115.691 410.415 116.036 410.406 116.419C410.397 116.801 410.383 117.151 410.364 117.469C410.355 117.786 410.341 118.019 410.322 118.169H410.378L415.88 109.895H417.28V119.891H416.104V114.459C416.104 114.113 416.109 113.745 416.118 113.353C416.137 112.961 416.155 112.601 416.174 112.275C416.193 111.948 416.207 111.715 416.216 111.575H416.16L410.644 119.891H409.244V109.895ZM424.26 110.861C423.187 110.861 422.342 111.22 421.726 111.939C421.11 112.657 420.802 113.642 420.802 114.893C420.802 116.134 421.087 117.119 421.656 117.847C422.235 118.565 423.098 118.925 424.246 118.925C424.685 118.925 425.1 118.887 425.492 118.813C425.884 118.738 426.267 118.645 426.64 118.533V119.625C426.267 119.765 425.879 119.867 425.478 119.933C425.086 119.998 424.615 120.031 424.064 120.031C423.047 120.031 422.197 119.821 421.516 119.401C420.835 118.981 420.321 118.383 419.976 117.609C419.64 116.834 419.472 115.924 419.472 114.879C419.472 113.871 419.654 112.984 420.018 112.219C420.391 111.444 420.937 110.842 421.656 110.413C422.375 109.974 423.247 109.755 424.274 109.755C425.329 109.755 426.248 109.951 427.032 110.343L426.528 111.407C426.22 111.267 425.875 111.141 425.492 111.029C425.119 110.917 424.708 110.861 424.26 110.861ZM435.094 119.891L433.89 116.797H429.928L428.738 119.891H427.464L431.37 109.853H432.504L436.396 119.891H435.094ZM433.512 115.677L432.392 112.653C432.364 112.578 432.317 112.443 432.252 112.247C432.186 112.051 432.121 111.85 432.056 111.645C432 111.43 431.953 111.267 431.916 111.155C431.85 111.444 431.776 111.729 431.692 112.009C431.608 112.279 431.538 112.494 431.482 112.653L430.348 115.677H433.512ZM445.407 119.891H444.147V115.229H439.023V119.891H437.763V109.895H439.023V114.123H444.147V109.895H445.407V119.891ZM448.154 109.895H449.33V115.383C449.33 115.691 449.325 116.036 449.316 116.419C449.307 116.801 449.293 117.151 449.274 117.469C449.265 117.786 449.251 118.019 449.232 118.169H449.288L454.79 109.895H456.19V119.891H455.014V114.459C455.014 114.113 455.019 113.745 455.028 113.353C455.047 112.961 455.065 112.601 455.084 112.275C455.103 111.948 455.117 111.715 455.126 111.575H455.07L449.554 119.891H448.154V109.895ZM464.472 119.891H458.886V109.895H464.472V111.001H460.146V114.123H464.22V115.215H460.146V118.785H464.472V119.891ZM396.524 134.5V133.324H400.291V134.5H396.524ZM401.528 136.886L405.172 132.484C405.295 132.338 405.422 132.18 405.555 132.012C405.691 131.843 405.817 131.665 405.931 131.479C406.049 131.292 406.145 131.098 406.218 130.898C406.295 130.693 406.334 130.481 406.334 130.262C406.334 130.034 406.288 129.82 406.197 129.619C406.106 129.419 405.981 129.243 405.821 129.093C405.662 128.943 405.47 128.824 405.247 128.737C405.028 128.651 404.787 128.608 404.522 128.608C404.285 128.608 404.06 128.646 403.846 128.724C403.636 128.797 403.451 128.906 403.292 129.052C403.132 129.198 403.002 129.38 402.902 129.599C402.807 129.813 402.754 130.061 402.745 130.344H401.515C401.519 129.911 401.603 129.512 401.767 129.148C401.932 128.778 402.15 128.462 402.424 128.197C402.702 127.929 403.023 127.721 403.388 127.575C403.752 127.425 404.135 127.35 404.536 127.35C405.001 127.35 405.422 127.425 405.801 127.575C406.179 127.721 406.502 127.924 406.771 128.184C407.04 128.443 407.248 128.751 407.393 129.107C407.544 129.462 407.619 129.847 407.619 130.262C407.619 130.426 407.599 130.601 407.557 130.788C407.521 130.97 407.455 131.169 407.359 131.383C407.268 131.593 407.145 131.818 406.99 132.06C406.84 132.301 406.648 132.561 406.416 132.839L403.182 136.688H407.605V137.891H401.528V136.886ZM409.089 134.5V133.324H412.855V134.5H409.089ZM423.571 132.879C423.571 133.915 423.394 134.82 423.039 135.595C422.694 136.36 422.18 136.957 421.499 137.387C420.818 137.816 419.973 138.031 418.965 138.031C417.929 138.031 417.066 137.816 416.375 137.387C415.694 136.957 415.185 136.355 414.849 135.581C414.513 134.806 414.345 133.901 414.345 132.865C414.345 131.838 414.513 130.942 414.849 130.177C415.185 129.411 415.694 128.814 416.375 128.385C417.066 127.955 417.934 127.741 418.979 127.741C419.978 127.741 420.818 127.955 421.499 128.385C422.18 128.805 422.694 129.402 423.039 130.177C423.394 130.942 423.571 131.843 423.571 132.879ZM415.675 132.879C415.675 134.139 415.941 135.133 416.473 135.861C417.005 136.579 417.836 136.939 418.965 136.939C420.104 136.939 420.934 136.579 421.457 135.861C421.98 135.133 422.241 134.139 422.241 132.879C422.241 131.619 421.98 130.634 421.457 129.925C420.934 129.206 420.108 128.847 418.979 128.847C417.85 128.847 417.014 129.206 416.473 129.925C415.941 130.634 415.675 131.619 415.675 132.879ZM425.801 127.895H426.977V133.383C426.977 133.691 426.972 134.036 426.963 134.419C426.953 134.801 426.939 135.151 426.921 135.469C426.911 135.786 426.897 136.019 426.879 136.169H426.935L432.437 127.895H433.837V137.891H432.661V132.459C432.661 132.113 432.665 131.745 432.675 131.353C432.693 130.961 432.712 130.601 432.731 130.275C432.749 129.948 432.763 129.715 432.773 129.575H432.717L427.201 137.891H425.801V127.895ZM432.605 124.787C432.539 125.487 432.301 126.019 431.891 126.383C431.489 126.737 430.845 126.915 429.959 126.915C429.044 126.915 428.395 126.737 428.013 126.383C427.639 126.028 427.429 125.496 427.383 124.787H428.531C428.577 125.291 428.708 125.631 428.923 125.809C429.147 125.977 429.501 126.061 429.987 126.061C430.416 126.061 430.752 125.972 430.995 125.795C431.247 125.608 431.396 125.272 431.443 124.787H432.605ZM417.962 151.5V150.324H421.728V151.5H417.962ZM423.722 154.891V144.895H431.226V154.891H429.98V146.001H424.982V154.891H423.722ZM442.684 149.879C442.684 150.915 442.507 151.82 442.152 152.595C441.807 153.36 441.294 153.957 440.612 154.387C439.931 154.816 439.086 155.031 438.078 155.031C437.042 155.031 436.179 154.816 435.488 154.387C434.807 153.957 434.298 153.355 433.962 152.581C433.626 151.806 433.458 150.901 433.458 149.865C433.458 148.838 433.626 147.942 433.962 147.177C434.298 146.411 434.807 145.814 435.488 145.385C436.179 144.955 437.047 144.741 438.092 144.741C439.091 144.741 439.931 144.955 440.612 145.385C441.294 145.805 441.807 146.402 442.152 147.177C442.507 147.942 442.684 148.843 442.684 149.879ZM434.788 149.879C434.788 151.139 435.054 152.133 435.586 152.861C436.118 153.579 436.949 153.939 438.078 153.939C439.217 153.939 440.048 153.579 440.57 152.861C441.093 152.133 441.354 151.139 441.354 149.879C441.354 148.619 441.093 147.634 440.57 146.925C440.048 146.206 439.222 145.847 438.092 145.847C436.963 145.847 436.128 146.206 435.586 146.925C435.054 147.634 434.788 148.619 434.788 149.879ZM450.671 147.233C450.671 147.914 450.456 148.455 450.027 148.857C449.598 149.249 449.024 149.501 448.305 149.613V149.669C449.145 149.781 449.784 150.042 450.223 150.453C450.662 150.863 450.881 151.4 450.881 152.063C450.881 152.94 450.545 153.654 449.873 154.205C449.201 154.755 448.193 155.031 446.849 155.031C446.308 155.031 445.79 154.989 445.295 154.905C444.81 154.83 444.357 154.69 443.937 154.485V153.337C444.376 153.542 444.852 153.705 445.365 153.827C445.888 153.939 446.378 153.995 446.835 153.995C447.731 153.995 448.408 153.827 448.865 153.491C449.332 153.155 449.565 152.679 449.565 152.063C449.565 151.428 449.294 150.966 448.753 150.677C448.212 150.387 447.456 150.243 446.485 150.243H445.057V149.193H446.415C447.404 149.193 448.142 149.029 448.627 148.703C449.122 148.367 449.369 147.919 449.369 147.359C449.369 146.855 449.182 146.467 448.809 146.197C448.436 145.926 447.95 145.791 447.353 145.791C446.728 145.791 446.205 145.87 445.785 146.029C445.374 146.187 444.973 146.393 444.581 146.645L443.979 145.791C444.371 145.501 444.852 145.259 445.421 145.063C446 144.857 446.648 144.755 447.367 144.755C448.45 144.755 449.271 144.988 449.831 145.455C450.391 145.921 450.671 146.514 450.671 147.233ZM453.008 144.895H454.184V150.383C454.184 150.691 454.179 151.036 454.17 151.419C454.16 151.801 454.146 152.151 454.128 152.469C454.118 152.786 454.104 153.019 454.086 153.169H454.142L459.644 144.895H461.044V154.891H459.868V149.459C459.868 149.113 459.872 148.745 459.882 148.353C459.9 147.961 459.919 147.601 459.938 147.275C459.956 146.948 459.97 146.715 459.98 146.575H459.924L454.408 154.891H453.008V144.895ZM472.462 153.785V157.523H471.258V154.891H463.74V144.895H465V153.771H469.998V144.895H471.244V153.785H472.462ZM474.131 144.895H475.307V150.383C475.307 150.691 475.302 151.036 475.293 151.419C475.283 151.801 475.269 152.151 475.251 152.469C475.241 152.786 475.227 153.019 475.209 153.169H475.265L480.767 144.895H482.167V154.891H480.991V149.459C480.991 149.113 480.995 148.745 481.005 148.353C481.023 147.961 481.042 147.601 481.061 147.275C481.079 146.948 481.093 146.715 481.103 146.575H481.047L475.531 154.891H474.131V144.895ZM484.877 144.895H486.053V150.383C486.053 150.691 486.048 151.036 486.039 151.419C486.029 151.801 486.015 152.151 485.997 152.469C485.987 152.786 485.973 153.019 485.955 153.169H486.011L491.513 144.895H492.913V154.891H491.737V149.459C491.737 149.113 491.741 148.745 491.751 148.353C491.769 147.961 491.788 147.601 491.807 147.275C491.825 146.948 491.839 146.715 491.849 146.575H491.793L486.277 154.891H484.877V144.895Z" fill="black"/>
<path d="M33.2435 276.141C33.2435 277.177 33.0662 278.082 32.7115 278.857C32.3662 279.622 31.8528 280.219 31.1715 280.649C30.4902 281.078 29.6455 281.293 28.6375 281.293C27.6015 281.293 26.7382 281.078 26.0475 280.649C25.3662 280.219 24.8575 279.617 24.5215 278.843C24.1855 278.068 24.0175 277.163 24.0175 276.127C24.0175 275.1 24.1855 274.204 24.5215 273.439C24.8575 272.673 25.3662 272.076 26.0475 271.647C26.7382 271.217 27.6062 271.003 28.6515 271.003C29.6502 271.003 30.4902 271.217 31.1715 271.647C31.8528 272.067 32.3662 272.664 32.7115 273.439C33.0662 274.204 33.2435 275.105 33.2435 276.141ZM25.3475 276.141C25.3475 277.401 25.6135 278.395 26.1455 279.123C26.6775 279.841 27.5082 280.201 28.6375 280.201C29.7762 280.201 30.6068 279.841 31.1295 279.123C31.6522 278.395 31.9135 277.401 31.9135 276.141C31.9135 274.881 31.6522 273.896 31.1295 273.187C30.6068 272.468 29.7808 272.109 28.6515 272.109C27.5222 272.109 26.6868 272.468 26.1455 273.187C25.6135 273.896 25.3475 274.881 25.3475 276.141ZM35.459 281.153V271.157H42.963V281.153H41.717V272.263H36.719V281.153H35.459ZM45.7132 271.157H46.8892V276.645C46.8892 276.953 46.8846 277.298 46.8752 277.681C46.8659 278.063 46.8519 278.413 46.8332 278.731C46.8239 279.048 46.8099 279.281 46.7912 279.431H46.8472L52.3492 271.157H53.7492V281.153H52.5732V275.721C52.5732 275.375 52.5779 275.007 52.5872 274.615C52.6059 274.223 52.6246 273.863 52.6432 273.537C52.6619 273.21 52.6759 272.977 52.6852 272.837H52.6292L47.1132 281.153H45.7132V271.157ZM60.7293 272.123C59.656 272.123 58.8113 272.482 58.1953 273.201C57.5793 273.919 57.2713 274.904 57.2713 276.155C57.2713 277.396 57.556 278.381 58.1253 279.109C58.704 279.827 59.5673 280.187 60.7153 280.187C61.154 280.187 61.5693 280.149 61.9613 280.075C62.3533 280 62.736 279.907 63.1093 279.795V280.887C62.736 281.027 62.3487 281.129 61.9473 281.195C61.5553 281.26 61.084 281.293 60.5333 281.293C59.516 281.293 58.6667 281.083 57.9853 280.663C57.304 280.243 56.7907 279.645 56.4453 278.871C56.1093 278.096 55.9413 277.186 55.9413 276.141C55.9413 275.133 56.1233 274.246 56.4873 273.481C56.8607 272.706 57.4067 272.104 58.1253 271.675C58.844 271.236 59.7167 271.017 60.7433 271.017C61.798 271.017 62.7173 271.213 63.5013 271.605L62.9973 272.669C62.6893 272.529 62.344 272.403 61.9613 272.291C61.588 272.179 61.1773 272.123 60.7293 272.123ZM71.563 281.153L70.359 278.059H66.397L65.207 281.153H63.933L67.839 271.115H68.973L72.865 281.153H71.563ZM69.981 276.939L68.861 273.915C68.833 273.84 68.7864 273.705 68.721 273.509C68.6557 273.313 68.5904 273.112 68.525 272.907C68.469 272.692 68.4224 272.529 68.385 272.417C68.3197 272.706 68.245 272.991 68.161 273.271C68.077 273.541 68.007 273.756 67.951 273.915L66.817 276.939H69.981ZM81.8765 281.153H80.6165V276.491H75.4925V281.153H74.2325V271.157H75.4925V275.385H80.6165V271.157H81.8765V281.153ZM84.6234 271.157H85.7994V276.645C85.7994 276.953 85.7947 277.298 85.7854 277.681C85.7761 278.063 85.7621 278.413 85.7434 278.731C85.7341 279.048 85.7201 279.281 85.7014 279.431H85.7574L91.2594 271.157H92.6594V281.153H91.4834V275.721C91.4834 275.375 91.4881 275.007 91.4974 274.615C91.5161 274.223 91.5347 273.863 91.5534 273.537C91.5721 273.21 91.5861 272.977 91.5954 272.837H91.5394L86.0234 281.153H84.6234V271.157ZM100.941 281.153H95.3555V271.157H100.941V272.263H96.6155V275.385H100.689V276.477H96.6155V280.047H100.941V281.153ZM105.468 277.079L109.153 270.789H110.609L107.102 276.983H109.754V275.274L111.094 275.178V276.983H112.639V278.159H111.094V279.977H112.12V281.153H108.756V279.977H109.754V278.159H105.455L105.468 277.079ZM114.04 277.762V276.586H117.807V277.762H114.04ZM128.523 276.141C128.523 277.177 128.345 278.082 127.991 278.857C127.645 279.622 127.132 280.219 126.451 280.649C125.769 281.078 124.925 281.293 123.917 281.293C122.881 281.293 122.017 281.078 121.327 280.649C120.645 280.219 120.137 279.617 119.801 278.843C119.465 278.068 119.297 277.163 119.297 276.127C119.297 275.1 119.465 274.204 119.801 273.439C120.137 272.673 120.645 272.076 121.327 271.647C122.017 271.217 122.885 271.003 123.931 271.003C124.929 271.003 125.769 271.217 126.451 271.647C127.132 272.067 127.645 272.664 127.991 273.439C128.345 274.204 128.523 275.105 128.523 276.141ZM120.627 276.141C120.627 277.401 120.893 278.395 121.425 279.123C121.957 279.841 122.787 280.201 123.917 280.201C125.055 280.201 125.886 279.841 126.409 279.123C126.931 278.395 127.193 277.401 127.193 276.141C127.193 274.881 126.931 273.896 126.409 273.187C125.886 272.468 125.06 272.109 123.931 272.109C122.801 272.109 121.966 272.468 121.425 273.187C120.893 273.896 120.627 274.881 120.627 276.141ZM130.752 271.157H131.928V276.645C131.928 276.953 131.924 277.298 131.914 277.681C131.905 278.063 131.891 278.413 131.872 278.731C131.863 279.048 131.849 279.281 131.83 279.431H131.886L137.388 271.157H138.788V281.153H137.612V275.721C137.612 275.375 137.617 275.007 137.626 274.615C137.645 274.223 137.664 273.863 137.682 273.537C137.701 273.21 137.715 272.977 137.724 272.837H137.668L132.152 281.153H130.752V271.157ZM137.556 268.049C137.491 268.749 137.253 269.281 136.842 269.645C136.441 269.999 135.797 270.177 134.91 270.177C133.996 270.177 133.347 269.999 132.964 269.645C132.591 269.29 132.381 268.758 132.334 268.049H133.482C133.529 268.553 133.66 268.893 133.874 269.071C134.098 269.239 134.453 269.323 134.938 269.323C135.368 269.323 135.704 269.234 135.946 269.057C136.198 268.87 136.348 268.534 136.394 268.049H137.556ZM47.0596 299.153V289.157H54.5636V299.153H53.3176V290.263H48.3196V299.153H47.0596ZM66.0218 294.141C66.0218 295.177 65.8445 296.082 65.4898 296.857C65.1445 297.622 64.6312 298.219 63.9498 298.649C63.2685 299.078 62.4238 299.293 61.4158 299.293C60.3798 299.293 59.5165 299.078 58.8258 298.649C58.1445 298.219 57.6358 297.617 57.2998 296.843C56.9638 296.068 56.7958 295.163 56.7958 294.127C56.7958 293.1 56.9638 292.204 57.2998 291.439C57.6358 290.673 58.1445 290.076 58.8258 289.647C59.5165 289.217 60.3845 289.003 61.4298 289.003C62.4285 289.003 63.2685 289.217 63.9498 289.647C64.6312 290.067 65.1445 290.664 65.4898 291.439C65.8445 292.204 66.0218 293.105 66.0218 294.141ZM58.1258 294.141C58.1258 295.401 58.3918 296.395 58.9238 297.123C59.4558 297.841 60.2865 298.201 61.4158 298.201C62.5545 298.201 63.3852 297.841 63.9078 297.123C64.4305 296.395 64.6918 295.401 64.6918 294.141C64.6918 292.881 64.4305 291.896 63.9078 291.187C63.3852 290.468 62.5592 290.109 61.4298 290.109C60.3005 290.109 59.4652 290.468 58.9238 291.187C58.3918 291.896 58.1258 292.881 58.1258 294.141ZM74.0086 291.495C74.0086 292.176 73.7939 292.717 73.3646 293.119C72.9353 293.511 72.3613 293.763 71.6426 293.875V293.931C72.4826 294.043 73.1219 294.304 73.5606 294.715C73.9993 295.125 74.2186 295.662 74.2186 296.325C74.2186 297.202 73.8826 297.916 73.2106 298.467C72.5386 299.017 71.5306 299.293 70.1866 299.293C69.6453 299.293 69.1273 299.251 68.6326 299.167C68.1473 299.092 67.6946 298.952 67.2746 298.747V297.599C67.7133 297.804 68.1893 297.967 68.7026 298.089C69.2253 298.201 69.7153 298.257 70.1726 298.257C71.0686 298.257 71.7453 298.089 72.2026 297.753C72.6693 297.417 72.9026 296.941 72.9026 296.325C72.9026 295.69 72.6319 295.228 72.0906 294.939C71.5493 294.649 70.7933 294.505 69.8226 294.505H68.3946V293.455H69.7526C70.7419 293.455 71.4793 293.291 71.9646 292.965C72.4593 292.629 72.7066 292.181 72.7066 291.621C72.7066 291.117 72.5199 290.729 72.1466 290.459C71.7733 290.188 71.2879 290.053 70.6906 290.053C70.0653 290.053 69.5426 290.132 69.1226 290.291C68.7119 290.449 68.3106 290.655 67.9186 290.907L67.3166 290.053C67.7086 289.763 68.1893 289.521 68.7586 289.325C69.3373 289.119 69.9859 289.017 70.7046 289.017C71.7873 289.017 72.6086 289.25 73.1686 289.717C73.7286 290.183 74.0086 290.776 74.0086 291.495ZM76.3451 289.157H77.5211V294.645C77.5211 294.953 77.5164 295.298 77.5071 295.681C77.4978 296.063 77.4838 296.413 77.4651 296.731C77.4558 297.048 77.4418 297.281 77.4231 297.431H77.4791L82.9811 289.157H84.3811V299.153H83.2051V293.721C83.2051 293.375 83.2098 293.007 83.2191 292.615C83.2378 292.223 83.2564 291.863 83.2751 291.537C83.2938 291.21 83.3078 290.977 83.3171 290.837H83.2611L77.7451 299.153H76.3451V289.157ZM95.7992 298.047V301.785H94.5952V299.153H87.0772V289.157H88.3372V298.033H93.3352V289.157H94.5812V298.047H95.7992ZM97.4681 289.157H98.6441V294.645C98.6441 294.953 98.6395 295.298 98.6301 295.681C98.6208 296.063 98.6068 296.413 98.5881 296.731C98.5788 297.048 98.5648 297.281 98.5461 297.431H98.6021L104.104 289.157H105.504V299.153H104.328V293.721C104.328 293.375 104.333 293.007 104.342 292.615C104.361 292.223 104.379 291.863 104.398 291.537C104.417 291.21 104.431 290.977 104.44 290.837H104.384L98.8681 299.153H97.4681V289.157ZM108.214 289.157H109.39V294.645C109.39 294.953 109.386 295.298 109.376 295.681C109.367 296.063 109.353 296.413 109.334 296.731C109.325 297.048 109.311 297.281 109.292 297.431H109.348L114.85 289.157H116.25V299.153H115.074V293.721C115.074 293.375 115.079 293.007 115.088 292.615C115.107 292.223 115.126 291.863 115.144 291.537C115.163 291.21 115.177 290.977 115.186 290.837H115.13L109.614 299.153H108.214V289.157Z" fill="black"/>
<path d="M25.4814 128.988C25.4814 130.024 25.304 130.929 24.9494 131.704C24.604 132.469 24.0907 133.067 23.4094 133.496C22.728 133.925 21.8834 134.14 20.8754 134.14C19.8394 134.14 18.976 133.925 18.2854 133.496C17.604 133.067 17.0954 132.465 16.7594 131.69C16.4234 130.915 16.2554 130.01 16.2554 128.974C16.2554 127.947 16.4234 127.051 16.7594 126.286C17.0954 125.521 17.604 124.923 18.2854 124.494C18.976 124.065 19.844 123.85 20.8894 123.85C21.888 123.85 22.728 124.065 23.4094 124.494C24.0907 124.914 24.604 125.511 24.9494 126.286C25.304 127.051 25.4814 127.952 25.4814 128.988ZM17.5854 128.988C17.5854 130.248 17.8514 131.242 18.3834 131.97C18.9154 132.689 19.746 133.048 20.8754 133.048C22.014 133.048 22.8447 132.689 23.3674 131.97C23.89 131.242 24.1514 130.248 24.1514 128.988C24.1514 127.728 23.89 126.743 23.3674 126.034C22.8447 125.315 22.0187 124.956 20.8894 124.956C19.76 124.956 18.9247 125.315 18.3834 126.034C17.8514 126.743 17.5854 127.728 17.5854 128.988ZM27.6969 134V124.004H35.2009V134H33.9549V125.11H28.9569V134H27.6969ZM37.9511 124.004H39.1271V129.492C39.1271 129.8 39.1224 130.145 39.1131 130.528C39.1038 130.911 39.0898 131.261 39.0711 131.578C39.0618 131.895 39.0478 132.129 39.0291 132.278H39.0851L44.5871 124.004H45.9871V134H44.8111V128.568C44.8111 128.223 44.8158 127.854 44.8251 127.462C44.8438 127.07 44.8624 126.711 44.8811 126.384C44.8998 126.057 44.9138 125.824 44.9231 125.684H44.8671L39.3511 134H37.9511V124.004ZM52.9672 124.97C51.8939 124.97 51.0492 125.329 50.4332 126.048C49.8172 126.767 49.5092 127.751 49.5092 129.002C49.5092 130.243 49.7939 131.228 50.3632 131.956C50.9419 132.675 51.8052 133.034 52.9532 133.034C53.3919 133.034 53.8072 132.997 54.1992 132.922C54.5912 132.847 54.9739 132.754 55.3472 132.642V133.734C54.9739 133.874 54.5865 133.977 54.1852 134.042C53.7932 134.107 53.3219 134.14 52.7712 134.14C51.7539 134.14 50.9045 133.93 50.2232 133.51C49.5419 133.09 49.0285 132.493 48.6832 131.718C48.3472 130.943 48.1792 130.033 48.1792 128.988C48.1792 127.98 48.3612 127.093 48.7252 126.328C49.0985 125.553 49.6445 124.951 50.3632 124.522C51.0819 124.083 51.9545 123.864 52.9812 123.864C54.0359 123.864 54.9552 124.06 55.7392 124.452L55.2352 125.516C54.9272 125.376 54.5819 125.25 54.1992 125.138C53.8259 125.026 53.4152 124.97 52.9672 124.97ZM63.8009 134L62.5969 130.906H58.6349L57.4449 134H56.1709L60.0769 123.962H61.2109L65.1029 134H63.8009ZM62.2189 129.786L61.0989 126.762C61.0709 126.687 61.0242 126.552 60.9589 126.356C60.8936 126.16 60.8282 125.959 60.7629 125.754C60.7069 125.539 60.6602 125.376 60.6229 125.264C60.5576 125.553 60.4829 125.838 60.3989 126.118C60.3149 126.389 60.2449 126.603 60.1889 126.762L59.0549 129.786H62.2189ZM74.1143 134H72.8543V129.338H67.7303V134H66.4703V124.004H67.7303V128.232H72.8543V124.004H74.1143V134ZM76.8613 124.004H78.0373V129.492C78.0373 129.8 78.0326 130.145 78.0233 130.528C78.0139 130.911 77.9999 131.261 77.9813 131.578C77.9719 131.895 77.9579 132.129 77.9393 132.278H77.9953L83.4973 124.004H84.8973V134H83.7213V128.568C83.7213 128.223 83.7259 127.854 83.7353 127.462C83.7539 127.07 83.7726 126.711 83.7913 126.384C83.8099 126.057 83.8239 125.824 83.8333 125.684H83.7773L78.2613 134H76.8613V124.004ZM93.1794 134H87.5934V124.004H93.1794V125.11H88.8534V128.232H92.9274V129.324H88.8534V132.894H93.1794V134ZM99.2441 127.889C99.4993 127.715 99.7614 127.586 100.03 127.499C100.299 127.408 100.607 127.362 100.953 127.362C101.464 127.362 101.933 127.453 102.361 127.636C102.79 127.818 103.157 128.064 103.462 128.374C103.772 128.684 104.011 129.046 104.18 129.461C104.353 129.871 104.439 130.306 104.439 130.767C104.439 131.231 104.355 131.674 104.187 132.093C104.018 132.507 103.779 132.872 103.469 133.187C103.159 133.501 102.785 133.752 102.348 133.938C101.915 134.121 101.432 134.212 100.898 134.212C100.493 134.212 100.115 134.157 99.7637 134.048C99.4128 133.943 99.096 133.795 98.8135 133.604C98.5309 133.408 98.2848 133.175 98.0752 132.906C97.8701 132.637 97.7061 132.343 97.583 132.024L98.7041 131.464C98.777 131.696 98.8841 131.913 99.0254 132.113C99.1667 132.309 99.333 132.48 99.5244 132.626C99.7158 132.767 99.9277 132.879 100.16 132.961C100.393 133.038 100.639 133.077 100.898 133.077C101.227 133.077 101.53 133.018 101.808 132.899C102.09 132.776 102.334 132.61 102.539 132.4C102.749 132.191 102.913 131.947 103.031 131.669C103.15 131.386 103.209 131.086 103.209 130.767C103.209 130.443 103.15 130.145 103.031 129.871C102.913 129.593 102.749 129.354 102.539 129.153C102.329 128.948 102.083 128.789 101.801 128.675C101.523 128.556 101.222 128.497 100.898 128.497C100.534 128.497 100.197 128.563 99.8867 128.695C99.5814 128.823 99.3262 128.996 99.1211 129.215L98.1162 129.058V123.637H103.954V124.771H99.2441V127.889ZM105.513 130.609V129.434H109.279V130.609H105.513ZM119.995 128.988C119.995 130.024 119.818 130.929 119.463 131.704C119.118 132.469 118.604 133.067 117.923 133.496C117.242 133.925 116.397 134.14 115.389 134.14C114.353 134.14 113.49 133.925 112.799 133.496C112.118 133.067 111.609 132.465 111.273 131.69C110.937 130.915 110.769 130.01 110.769 128.974C110.769 127.947 110.937 127.051 111.273 126.286C111.609 125.521 112.118 124.923 112.799 124.494C113.49 124.065 114.358 123.85 115.403 123.85C116.402 123.85 117.242 124.065 117.923 124.494C118.604 124.914 119.118 125.511 119.463 126.286C119.818 127.051 119.995 127.952 119.995 128.988ZM112.099 128.988C112.099 130.248 112.365 131.242 112.897 131.97C113.429 132.689 114.26 133.048 115.389 133.048C116.528 133.048 117.358 132.689 117.881 131.97C118.404 131.242 118.665 130.248 118.665 128.988C118.665 127.728 118.404 126.743 117.881 126.034C117.358 125.315 116.532 124.956 115.403 124.956C114.274 124.956 113.438 125.315 112.897 126.034C112.365 126.743 112.099 127.728 112.099 128.988ZM122.225 124.004H123.401V129.492C123.401 129.8 123.396 130.145 123.387 130.528C123.377 130.911 123.363 131.261 123.345 131.578C123.335 131.895 123.321 132.129 123.303 132.278H123.359L128.861 124.004H130.261V134H129.085V128.568C129.085 128.223 129.089 127.854 129.099 127.462C129.117 127.07 129.136 126.711 129.155 126.384C129.173 126.057 129.187 125.824 129.197 125.684H129.141L123.625 134H122.225V124.004ZM129.029 120.896C128.963 121.596 128.725 122.128 128.315 122.492C127.913 122.847 127.269 123.024 126.383 123.024C125.468 123.024 124.819 122.847 124.437 122.492C124.063 122.137 123.853 121.605 123.807 120.896H124.955C125.001 121.4 125.132 121.741 125.347 121.918C125.571 122.086 125.925 122.17 126.411 122.17C126.84 122.17 127.176 122.081 127.419 121.904C127.671 121.717 127.82 121.381 127.867 120.896H129.029ZM38.9146 152V142.004H46.4186V152H45.1726V143.11H40.1746V152H38.9146ZM57.8769 146.988C57.8769 148.024 57.6995 148.929 57.3449 149.704C56.9995 150.469 56.4862 151.067 55.8049 151.496C55.1235 151.925 54.2789 152.14 53.2709 152.14C52.2349 152.14 51.3715 151.925 50.6809 151.496C49.9995 151.067 49.4909 150.465 49.1549 149.69C48.8189 148.915 48.6509 148.01 48.6509 146.974C48.6509 145.947 48.8189 145.051 49.1549 144.286C49.4909 143.521 49.9995 142.923 50.6809 142.494C51.3715 142.065 52.2395 141.85 53.2849 141.85C54.2835 141.85 55.1235 142.065 55.8049 142.494C56.4862 142.914 56.9995 143.511 57.3449 144.286C57.6995 145.051 57.8769 145.952 57.8769 146.988ZM49.9809 146.988C49.9809 148.248 50.2469 149.242 50.7789 149.97C51.3109 150.689 52.1415 151.048 53.2709 151.048C54.4095 151.048 55.2402 150.689 55.7629 149.97C56.2855 149.242 56.5469 148.248 56.5469 146.988C56.5469 145.728 56.2855 144.743 55.7629 144.034C55.2402 143.315 54.4142 142.956 53.2849 142.956C52.1555 142.956 51.3202 143.315 50.7789 144.034C50.2469 144.743 49.9809 145.728 49.9809 146.988ZM65.8637 144.342C65.8637 145.023 65.649 145.565 65.2197 145.966C64.7903 146.358 64.2163 146.61 63.4977 146.722V146.778C64.3377 146.89 64.977 147.151 65.4157 147.562C65.8543 147.973 66.0737 148.509 66.0737 149.172C66.0737 150.049 65.7377 150.763 65.0657 151.314C64.3937 151.865 63.3857 152.14 62.0417 152.14C61.5003 152.14 60.9823 152.098 60.4877 152.014C60.0023 151.939 59.5497 151.799 59.1297 151.594V150.446C59.5683 150.651 60.0443 150.815 60.5577 150.936C61.0803 151.048 61.5703 151.104 62.0277 151.104C62.9237 151.104 63.6003 150.936 64.0577 150.6C64.5243 150.264 64.7577 149.788 64.7577 149.172C64.7577 148.537 64.487 148.075 63.9457 147.786C63.4043 147.497 62.6483 147.352 61.6777 147.352H60.2497V146.302H61.6077C62.597 146.302 63.3343 146.139 63.8197 145.812C64.3143 145.476 64.5617 145.028 64.5617 144.468C64.5617 143.964 64.375 143.577 64.0017 143.306C63.6283 143.035 63.143 142.9 62.5457 142.9C61.9203 142.9 61.3977 142.979 60.9777 143.138C60.567 143.297 60.1657 143.502 59.7737 143.754L59.1717 142.9C59.5637 142.611 60.0443 142.368 60.6137 142.172C61.1923 141.967 61.841 141.864 62.5597 141.864C63.6423 141.864 64.4637 142.097 65.0237 142.564C65.5837 143.031 65.8637 143.623 65.8637 144.342ZM68.2001 142.004H69.3761V147.492C69.3761 147.8 69.3715 148.145 69.3621 148.528C69.3528 148.911 69.3388 149.261 69.3201 149.578C69.3108 149.895 69.2968 150.129 69.2781 150.278H69.3341L74.8361 142.004H76.2361V152H75.0601V146.568C75.0601 146.223 75.0648 145.854 75.0741 145.462C75.0928 145.07 75.1115 144.711 75.1301 144.384C75.1488 144.057 75.1628 143.824 75.1721 143.684H75.1161L69.6001 152H68.2001V142.004ZM87.6542 150.894V154.632H86.4502V152H78.9322V142.004H80.1922V150.88H85.1902V142.004H86.4362V150.894H87.6542ZM89.3232 142.004H90.4992V147.492C90.4992 147.8 90.4945 148.145 90.4852 148.528C90.4758 148.911 90.4618 149.261 90.4432 149.578C90.4338 149.895 90.4198 150.129 90.4012 150.278H90.4572L95.9592 142.004H97.3592V152H96.1832V146.568C96.1832 146.223 96.1878 145.854 96.1972 145.462C96.2158 145.07 96.2345 144.711 96.2532 144.384C96.2718 144.057 96.2858 143.824 96.2952 143.684H96.2392L90.7232 152H89.3232V142.004ZM100.069 142.004H101.245V147.492C101.245 147.8 101.241 148.145 101.231 148.528C101.222 148.911 101.208 149.261 101.189 149.578C101.18 149.895 101.166 150.129 101.147 150.278H101.203L106.705 142.004H108.105V152H106.929V146.568C106.929 146.223 106.934 145.854 106.943 145.462C106.962 145.07 106.981 144.711 106.999 144.384C107.018 144.057 107.032 143.824 107.041 143.684H106.985L101.469 152H100.069V142.004Z" fill="black"/>
<path d="M52.0673 8.988C52.0673 10.024 51.8899 10.9293 51.5353 11.704C51.1899 12.4693 50.6766 13.0667 49.9953 13.496C49.3139 13.9253 48.4693 14.14 47.4613 14.14C46.4253 14.14 45.5619 13.9253 44.8713 13.496C44.1899 13.0667 43.6813 12.4647 43.3453 11.69C43.0093 10.9153 42.8413 10.01 42.8413 8.974C42.8413 7.94733 43.0093 7.05133 43.3453 6.286C43.6813 5.52067 44.1899 4.92333 44.8713 4.494C45.5619 4.06467 46.4299 3.85 47.4753 3.85C48.4739 3.85 49.3139 4.06467 49.9953 4.494C50.6766 4.914 51.1899 5.51133 51.5353 6.286C51.8899 7.05133 52.0673 7.952 52.0673 8.988ZM44.1713 8.988C44.1713 10.248 44.4373 11.242 44.9693 11.97C45.5013 12.6887 46.3319 13.048 47.4613 13.048C48.5999 13.048 49.4306 12.6887 49.9533 11.97C50.4759 11.242 50.7373 10.248 50.7373 8.988C50.7373 7.728 50.4759 6.74333 49.9533 6.034C49.4306 5.31533 48.6046 4.956 47.4753 4.956C46.3459 4.956 45.5106 5.31533 44.9693 6.034C44.4373 6.74333 44.1713 7.728 44.1713 8.988ZM54.2828 14V4.004H61.7868V14H60.5408V5.11H55.5428V14H54.2828ZM64.537 4.004H65.713V9.492C65.713 9.8 65.7083 10.1453 65.699 10.528C65.6897 10.9107 65.6757 11.2607 65.657 11.578C65.6477 11.8953 65.6337 12.1287 65.615 12.278H65.671L71.173 4.004H72.573V14H71.397V8.568C71.397 8.22267 71.4017 7.854 71.411 7.462C71.4297 7.07 71.4483 6.71067 71.467 6.384C71.4857 6.05733 71.4997 5.824 71.509 5.684H71.453L65.937 14H64.537V4.004ZM79.5531 4.97C78.4798 4.97 77.6351 5.32933 77.0191 6.048C76.4031 6.76667 76.0951 7.75133 76.0951 9.002C76.0951 10.2433 76.3798 11.228 76.9491 11.956C77.5278 12.6747 78.3911 13.034 79.5391 13.034C79.9778 13.034 80.3931 12.9967 80.7851 12.922C81.1771 12.8473 81.5598 12.754 81.9331 12.642V13.734C81.5598 13.874 81.1724 13.9767 80.7711 14.042C80.3791 14.1073 79.9078 14.14 79.3571 14.14C78.3398 14.14 77.4904 13.93 76.8091 13.51C76.1278 13.09 75.6144 12.4927 75.2691 11.718C74.9331 10.9433 74.7651 10.0333 74.7651 8.988C74.7651 7.98 74.9471 7.09333 75.3111 6.328C75.6844 5.55333 76.2304 4.95133 76.9491 4.522C77.6678 4.08333 78.5404 3.864 79.5671 3.864C80.6218 3.864 81.5411 4.06 82.3251 4.452L81.8211 5.516C81.5131 5.376 81.1678 5.25 80.7851 5.138C80.4118 5.026 80.0011 4.97 79.5531 4.97ZM90.3868 14L89.1828 10.906H85.2208L84.0308 14H82.7568L86.6628 3.962H87.7968L91.6888 14H90.3868ZM88.8048 9.786L87.6848 6.762C87.6568 6.68733 87.6101 6.552 87.5448 6.356C87.4795 6.16 87.4141 5.95933 87.3488 5.754C87.2928 5.53933 87.2461 5.376 87.2088 5.264C87.1435 5.55333 87.0688 5.838 86.9848 6.118C86.9008 6.38867 86.8308 6.60333 86.7748 6.762L85.6408 9.786H88.8048ZM100.7 14H99.4402V9.338H94.3162V14H93.0562V4.004H94.3162V8.232H99.4402V4.004H100.7V14ZM103.447 4.004H104.623V9.492C104.623 9.8 104.618 10.1453 104.609 10.528C104.6 10.9107 104.586 11.2607 104.567 11.578C104.558 11.8953 104.544 12.1287 104.525 12.278H104.581L110.083 4.004H111.483V14H110.307V8.568C110.307 8.22267 110.312 7.854 110.321 7.462C110.34 7.07 110.358 6.71067 110.377 6.384C110.396 6.05733 110.41 5.824 110.419 5.684H110.363L104.847 14H103.447V4.004ZM119.765 14H114.179V4.004H119.765V5.11H115.439V8.232H119.513V9.324H115.439V12.894H119.765V14ZM129.234 3.63672L126.91 7.5127C127.188 7.39421 127.439 7.32585 127.662 7.30762C127.89 7.28939 128.093 7.28027 128.27 7.28027C128.69 7.28027 129.095 7.36003 129.487 7.51953C129.879 7.67448 130.226 7.89551 130.526 8.18262C130.832 8.46517 131.075 8.80469 131.258 9.20117C131.44 9.5931 131.531 10.026 131.531 10.5C131.531 11.0788 131.433 11.5938 131.237 12.0449C131.041 12.4961 130.777 12.8766 130.444 13.1865C130.112 13.4964 129.724 13.7334 129.282 13.8975C128.845 14.057 128.38 14.1367 127.888 14.1367C127.423 14.1367 126.974 14.0524 126.541 13.8838C126.113 13.7152 125.732 13.4805 125.399 13.1797C125.067 12.8743 124.8 12.5098 124.6 12.0859C124.404 11.6576 124.306 11.1836 124.306 10.6641C124.306 10.263 124.381 9.86654 124.531 9.47461C124.686 9.08268 124.878 8.67253 125.105 8.24414L127.642 3.63672H129.234ZM127.737 8.40137C127.409 8.40137 127.129 8.45378 126.896 8.55859C126.669 8.65885 126.452 8.80241 126.247 8.98926C126.042 9.17155 125.88 9.40625 125.762 9.69336C125.643 9.97591 125.584 10.304 125.584 10.6777C125.584 11.0332 125.643 11.3522 125.762 11.6348C125.88 11.9173 126.044 12.1566 126.254 12.3525C126.464 12.5439 126.71 12.6921 126.992 12.7969C127.279 12.8971 127.589 12.9473 127.922 12.9473C128.232 12.9473 128.528 12.8926 128.811 12.7832C129.093 12.6738 129.341 12.5189 129.556 12.3184C129.77 12.1178 129.941 11.8786 130.068 11.6006C130.196 11.3226 130.26 11.015 130.26 10.6777C130.26 10.304 130.191 9.97591 130.055 9.69336C129.918 9.40625 129.733 9.16699 129.501 8.97559C129.273 8.78418 129.006 8.64062 128.701 8.54492C128.396 8.44922 128.075 8.40137 127.737 8.40137ZM132.851 10.6094V9.43359H136.617V10.6094H132.851ZM147.333 8.988C147.333 10.024 147.156 10.9293 146.801 11.704C146.456 12.4693 145.942 13.0667 145.261 13.496C144.58 13.9253 143.735 14.14 142.727 14.14C141.691 14.14 140.828 13.9253 140.137 13.496C139.456 13.0667 138.947 12.4647 138.611 11.69C138.275 10.9153 138.107 10.01 138.107 8.974C138.107 7.94733 138.275 7.05133 138.611 6.286C138.947 5.52067 139.456 4.92333 140.137 4.494C140.828 4.06467 141.696 3.85 142.741 3.85C143.74 3.85 144.58 4.06467 145.261 4.494C145.942 4.914 146.456 5.51133 146.801 6.286C147.156 7.05133 147.333 7.952 147.333 8.988ZM139.437 8.988C139.437 10.248 139.703 11.242 140.235 11.97C140.767 12.6887 141.598 13.048 142.727 13.048C143.866 13.048 144.696 12.6887 145.219 11.97C145.742 11.242 146.003 10.248 146.003 8.988C146.003 7.728 145.742 6.74333 145.219 6.034C144.696 5.31533 143.87 4.956 142.741 4.956C141.612 4.956 140.776 5.31533 140.235 6.034C139.703 6.74333 139.437 7.728 139.437 8.988ZM149.562 4.004H150.738V9.492C150.738 9.8 150.734 10.1453 150.724 10.528C150.715 10.9107 150.701 11.2607 150.682 11.578C150.673 11.8953 150.659 12.1287 150.64 12.278H150.696L156.198 4.004H157.598V14H156.422V8.568C156.422 8.22267 156.427 7.854 156.436 7.462C156.455 7.07 156.474 6.71067 156.492 6.384C156.511 6.05733 156.525 5.824 156.534 5.684H156.478L150.962 14H149.562V4.004ZM156.366 0.895999C156.301 1.596 156.063 2.128 155.652 2.492C155.251 2.84667 154.607 3.024 153.72 3.024C152.806 3.024 152.157 2.84667 151.774 2.492C151.401 2.13733 151.191 1.60533 151.144 0.895999H152.292C152.339 1.4 152.47 1.74067 152.684 1.918C152.908 2.086 153.263 2.17 153.748 2.17C154.178 2.17 154.514 2.08133 154.756 1.904C155.008 1.71733 155.158 1.38133 155.204 0.895999H156.366ZM65.8765 32V22.004H73.3805V32H72.1345V23.11H67.1365V32H65.8765ZM84.8388 26.988C84.8388 28.024 84.6614 28.9293 84.3068 29.704C83.9614 30.4693 83.4481 31.0667 82.7668 31.496C82.0854 31.9253 81.2408 32.14 80.2328 32.14C79.1968 32.14 78.3334 31.9253 77.6428 31.496C76.9614 31.0667 76.4528 30.4647 76.1168 29.69C75.7808 28.9153 75.6128 28.01 75.6128 26.974C75.6128 25.9473 75.7808 25.0513 76.1168 24.286C76.4528 23.5207 76.9614 22.9233 77.6428 22.494C78.3334 22.0647 79.2014 21.85 80.2468 21.85C81.2454 21.85 82.0854 22.0647 82.7668 22.494C83.4481 22.914 83.9614 23.5113 84.3068 24.286C84.6614 25.0513 84.8388 25.952 84.8388 26.988ZM76.9428 26.988C76.9428 28.248 77.2088 29.242 77.7408 29.97C78.2728 30.6887 79.1034 31.048 80.2328 31.048C81.3714 31.048 82.2021 30.6887 82.7248 29.97C83.2474 29.242 83.5088 28.248 83.5088 26.988C83.5088 25.728 83.2474 24.7433 82.7248 24.034C82.2021 23.3153 81.3761 22.956 80.2468 22.956C79.1174 22.956 78.2821 23.3153 77.7408 24.034C77.2088 24.7433 76.9428 25.728 76.9428 26.988ZM92.8255 24.342C92.8255 25.0233 92.6109 25.5647 92.1815 25.966C91.7522 26.358 91.1782 26.61 90.4595 26.722V26.778C91.2995 26.89 91.9389 27.1513 92.3775 27.562C92.8162 27.9727 93.0355 28.5093 93.0355 29.172C93.0355 30.0493 92.6995 30.7633 92.0275 31.314C91.3555 31.8647 90.3475 32.14 89.0035 32.14C88.4622 32.14 87.9442 32.098 87.4495 32.014C86.9642 31.9393 86.5115 31.7993 86.0915 31.594V30.446C86.5302 30.6513 87.0062 30.8147 87.5195 30.936C88.0422 31.048 88.5322 31.104 88.9895 31.104C89.8855 31.104 90.5622 30.936 91.0195 30.6C91.4862 30.264 91.7195 29.788 91.7195 29.172C91.7195 28.5373 91.4489 28.0753 90.9075 27.786C90.3662 27.4967 89.6102 27.352 88.6395 27.352H87.2115V26.302H88.5695C89.5589 26.302 90.2962 26.1387 90.7815 25.812C91.2762 25.476 91.5235 25.028 91.5235 24.468C91.5235 23.964 91.3369 23.5767 90.9635 23.306C90.5902 23.0353 90.1049 22.9 89.5075 22.9C88.8822 22.9 88.3595 22.9793 87.9395 23.138C87.5289 23.2967 87.1275 23.502 86.7355 23.754L86.1335 22.9C86.5255 22.6107 87.0062 22.368 87.5755 22.172C88.1542 21.9667 88.8029 21.864 89.5215 21.864C90.6042 21.864 91.4255 22.0973 91.9855 22.564C92.5455 23.0307 92.8255 23.6233 92.8255 24.342ZM95.162 22.004H96.338V27.492C96.338 27.8 96.3333 28.1453 96.324 28.528C96.3147 28.9107 96.3007 29.2607 96.282 29.578C96.2727 29.8953 96.2587 30.1287 96.24 30.278H96.296L101.798 22.004H103.198V32H102.022V26.568C102.022 26.2227 102.027 25.854 102.036 25.462C102.055 25.07 102.073 24.7107 102.092 24.384C102.111 24.0573 102.125 23.824 102.134 23.684H102.078L96.562 32H95.162V22.004ZM114.616 30.894V34.632H113.412V32H105.894V22.004H107.154V30.88H112.152V22.004H113.398V30.894H114.616ZM116.285 22.004H117.461V27.492C117.461 27.8 117.456 28.1453 117.447 28.528C117.438 28.9107 117.424 29.2607 117.405 29.578C117.396 29.8953 117.382 30.1287 117.363 30.278H117.419L122.921 22.004H124.321V32H123.145V26.568C123.145 26.2227 123.15 25.854 123.159 25.462C123.178 25.07 123.196 24.7107 123.215 24.384C123.234 24.0573 123.248 23.824 123.257 23.684H123.201L117.685 32H116.285V22.004ZM127.031 22.004H128.207V27.492C128.207 27.8 128.202 28.1453 128.193 28.528C128.184 28.9107 128.17 29.2607 128.151 29.578C128.142 29.8953 128.128 30.1287 128.109 30.278H128.165L133.667 22.004H135.067V32H133.891V26.568C133.891 26.2227 133.896 25.854 133.905 25.462C133.924 25.07 133.942 24.7107 133.961 24.384C133.98 24.0573 133.994 23.824 134.003 23.684H133.947L128.431 32H127.031V22.004Z" fill="black"/>
<path d="M471.045 157.938H402.075L376.5 169.5" stroke="black"/>
<path d="M471.045 306.084H363.386L351.373 284.256L339.36 262.427" stroke="black"/>
<path d="M471.045 44.1448H364.488L337 86" stroke="black"/>
<path d="M40.2056 44.1448H143.867L173 85.5" stroke="black"/>
<path d="M32.3331 157.938H107.325L136.5 167.5" stroke="black"/>
<path d="M39.4899 304.652H143.73L175 261" stroke="black"/>
<g clip-path="url(#clip0)">
<path d="M310.128 110.367C296.552 98.7808 279.193 91.4981 260.159 90.6345L257.26 88.4405L252.063 84.5101V90.6524C233.208 91.6115 216.018 98.8712 202.552 110.366C201.522 109.73 200.309 109.363 199.009 109.363C195.278 109.363 192.253 112.388 192.253 116.12C192.253 117.419 192.619 118.632 193.255 119.662C182.229 132.58 175.099 148.924 173.69 166.878C170.717 167.587 168.504 170.261 168.504 173.451C168.504 176.642 170.717 179.315 173.691 180.024C175.099 197.978 182.228 214.324 193.254 227.244C192.62 228.273 192.253 229.486 192.253 230.784C192.253 234.516 195.278 237.54 199.009 237.54C200.308 237.54 201.52 237.173 202.55 236.539C215.143 247.289 238.5 256.5 256 256.5C275 256.5 296.891 247.841 310.133 236.539C311.162 237.173 312.375 237.54 313.673 237.54C317.404 237.54 320.429 234.516 320.429 230.784C320.429 229.486 320.062 228.274 319.428 227.245C330.454 214.326 337.583 197.979 338.991 180.024C341.965 179.315 344.177 176.642 344.177 173.451C344.177 170.261 341.965 167.587 338.992 166.878C337.582 148.924 330.453 132.58 319.426 119.663C320.062 118.633 320.429 117.419 320.429 116.12C320.429 112.388 317.404 109.363 313.673 109.363C312.373 109.363 311.159 109.731 310.128 110.367Z" stroke="#434242" stroke-width="0.705586" stroke-miterlimit="22.9256"/>
<path fill-rule="evenodd" clip-rule="evenodd" d="M256.341 72.3343C312.314 72.3343 357.69 117.709 357.69 173.683C357.69 229.657 312.314 275.031 256.341 275.031C200.368 275.031 154.992 229.657 154.992 173.683C154.992 117.709 200.368 72.3343 256.341 72.3343V72.3343ZM256.341 61.0732C318.534 61.0732 368.951 111.49 368.951 173.683C368.951 235.876 318.534 286.293 256.341 286.293C194.149 286.293 143.731 235.876 143.731 173.683C143.731 111.49 194.149 61.0732 256.341 61.0732V61.0732Z" stroke="#2B2A29" stroke-width="0.705586" stroke-miterlimit="22.9256"/>
<path d="M147.73 143.875L165.428 128.86M226.947 76.6704L244.617 61.6797M166.014 240.935L174.624 233.63M328.802 102.832L337.41 95.53M245.822 285.799L258.547 275.004M355.969 192.356L368.674 181.578M147.019 200.762L156.747 192.51M291.166 78.4754L300.883 70.2319M198.045 270.046L207.162 262.311M351.811 139.598L360.927 131.864M143.755 175.389L155.317 165.58M264.812 72.6899L276.404 62.8561M180.425 256.85L189.094 249.497M342.116 119.681L350.781 112.33M281.828 283.396L309.223 260.155M332.997 239.986L360.433 216.712M154.761 222.337L163.677 214.773M311.976 88.9629L320.888 81.4026M219.389 280.08L229.565 271.448M357.156 163.206L367.331 154.574M144.483 160.7L157.964 149.264M248.267 72.6543L261.763 61.2059M172.831 249.222L181.423 241.933M335.895 110.886L344.485 103.599M261.994 286.152L277.79 272.75M350.61 210.974L366.406 197.574M150.41 211.957L159.649 204.12M302.129 83.2463L311.361 75.4141M208.198 275.503L217.737 267.411M355.114 150.867L364.657 142.771M155.774 122.978L222.728 66.178M144.725 188.638L155.181 179.767M278.856 74.8475L289.308 65.9803M188.816 263.805L197.647 256.313M347.444 129.231L356.276 121.738M313.022 271.003L343.074 245.509M159.98 231.98L168.694 224.589M320.848 95.5084L329.554 88.1227M231.82 283.606L242.966 274.15M357.638 176.868L368.777 167.418M146.281 149.793L162.077 136.393M234.898 74.6151L250.694 61.2139M168.203 243.766L176.793 236.48M331.266 105.432L339.857 98.1438M250.925 286.16L264.421 274.711M354.723 198.103L368.204 186.667M148.03 204.594L157.573 196.498M294.951 79.9545L304.49 71.8622M201.326 271.951L210.558 264.119M353.039 143.245L362.277 135.409M169.615 101.856L199.664 76.3633M143.91 179.947L155.049 170.498M269.722 73.2146L280.868 63.759M183.134 259.242L191.84 251.857M343.993 122.776L352.707 115.384M289.959 281.187L356.912 224.387M156.411 225.627L165.244 218.134M315.041 91.0525L323.872 83.5613M223.38 281.385L233.832 272.518M357.506 167.599L367.963 158.728M144.013 165.788L156.717 155.011M254.14 72.3618L266.866 61.5665M175.278 251.836L183.885 244.533M338.064 113.737L346.674 106.432M268.07 285.686L285.741 270.695M347.258 218.507L364.957 203.493M151.76 215.502L160.876 207.768M305.526 85.0542L314.642 77.3198M211.805 277.134L221.522 268.89M355.939 154.857L365.668 146.603M152.253 130.655L179.691 107.378M203.463 87.2108L230.86 63.9692M145.356 192.792L155.531 184.16M283.122 75.9174L293.298 67.2841M191.799 265.963L200.711 258.401M349.01 132.592L357.927 125.028M161.907 235.036L170.572 227.685M323.593 97.8684L332.261 90.515M236.284 284.509L247.875 274.675M357.369 181.786L368.931 171.977M145.221 155.383L159.694 143.105M241.902 73.3632L256.389 61.0739M170.476 246.529L179.062 239.244M333.625 108.121L342.211 100.837M256.299 286.291L270.785 274.002M352.993 204.261L367.465 191.983M149.169 208.319L158.55 200.36M298.605 81.545L307.982 73.5886M204.704 273.776L214.082 265.82M354.137 147.006L363.518 139.047M160.857 113.976L213.041 69.7063M144.241 184.358L155.014 175.218M274.397 73.9391L285.166 64.8026M185.933 261.56L194.697 254.125M345.769 125.961L354.534 118.525M299.648 277.659L351.83 233.391M158.153 228.84L166.917 221.405M317.991 93.242L326.756 85.8057M227.521 282.563L238.291 273.427M357.673 172.148L368.446 163.008M143.774 170.682L155.857 160.431M259.633 72.3929L271.736 62.1253M177.811 254.378L186.435 247.062M340.139 116.666L348.769 109.346M274.638 284.806L295.319 267.261M342.279 227.421L363.031 209.817M153.214 218.959L162.219 211.32M308.812 86.9575L317.812 79.3229M215.531 278.663L225.466 270.235M356.625 158.966L366.566 150.532M149.655 137.55L170.406 119.947M217.369 80.1055L238.05 62.5604M146.12 196.835L156.062 188.401M287.221 77.1316L297.156 68.7027M194.876 268.045L203.875 260.409M350.468 136.046L359.472 128.407M163.919 238.021L172.547 230.701M326.252 100.305L334.877 92.9888M240.951 285.241L253.054 274.974M356.829 186.936L368.913 176.685" stroke="#2B2A29" stroke-width="0.705586" stroke-miterlimit="22.9256"/>
<path d="M315.159 120.168H314.168V113.858C313.93 114.087 313.616 114.314 313.229 114.541C312.843 114.769 312.494 114.94 312.187 115.052V114.095C312.74 113.837 313.224 113.521 313.639 113.15C314.053 112.78 314.348 112.421 314.521 112.073H315.159V120.168V120.168Z" fill="#FF0000" stroke="#FF0000" stroke-width="0.705586" stroke-miterlimit="22.9256"/>
<path d="M340.092 176.554V177.499H334.755C334.747 177.261 334.787 177.032 334.872 176.81C335.008 176.448 335.228 176.09 335.53 175.739C335.832 175.388 336.264 174.983 336.825 174.523C337.697 173.805 338.291 173.236 338.601 172.815C338.912 172.395 339.067 171.997 339.067 171.622C339.067 171.23 338.927 170.9 338.645 170.63C338.364 170.361 337.996 170.226 337.544 170.226C337.065 170.226 336.683 170.369 336.396 170.653C336.109 170.937 335.964 171.331 335.96 171.836L334.947 171.735C335.016 170.977 335.279 170.398 335.733 170.001C336.189 169.603 336.799 169.404 337.566 169.404C338.34 169.404 338.953 169.617 339.404 170.047C339.856 170.478 340.081 171.01 340.081 171.644C340.081 171.968 340.016 172.284 339.882 172.596C339.751 172.91 339.531 173.238 339.226 173.583C338.918 173.926 338.409 174.401 337.7 175.001C337.105 175.501 336.723 175.839 336.553 176.017C336.384 176.195 336.246 176.373 336.135 176.554L340.092 176.554Z" fill="#FF0000" stroke="#FF0000" stroke-width="0.705586" stroke-miterlimit="22.9256"/>
<path d="M311.153 232.693L312.144 232.558C312.259 233.121 312.45 233.526 312.722 233.773C312.994 234.022 313.329 234.145 313.724 234.145C314.193 234.145 314.59 233.984 314.908 233.661C315.227 233.338 315.387 232.938 315.387 232.462C315.387 232.007 315.239 231.632 314.94 231.336C314.644 231.041 314.266 230.893 313.807 230.893C313.619 230.893 313.387 230.93 313.106 231.004L313.217 230.137C313.283 230.144 313.338 230.148 313.377 230.148C313.801 230.148 314.18 230.037 314.52 229.817C314.857 229.598 315.026 229.26 315.026 228.805C315.026 228.442 314.903 228.142 314.657 227.904C314.411 227.665 314.094 227.547 313.705 227.547C313.319 227.547 312.998 227.669 312.741 227.913C312.483 228.157 312.319 228.523 312.245 229.011L311.254 228.831C311.377 228.166 311.65 227.651 312.08 227.284C312.508 226.919 313.043 226.736 313.681 226.736C314.12 226.736 314.525 226.83 314.895 227.02C315.267 227.208 315.55 227.465 315.745 227.789C315.942 228.116 316.04 228.461 316.04 228.827C316.04 229.175 315.946 229.489 315.76 229.775C315.572 230.06 315.294 230.287 314.929 230.456C315.406 230.565 315.775 230.794 316.04 231.141C316.302 231.486 316.434 231.921 316.434 232.442C316.434 233.146 316.177 233.744 315.664 234.234C315.15 234.723 314.501 234.967 313.717 234.967C313.009 234.967 312.422 234.755 311.954 234.333C311.486 233.911 311.219 233.365 311.153 232.693L311.153 232.693Z" fill="#FF0000" stroke="#FF0000" stroke-width="0.705586" stroke-miterlimit="22.9256"/>
<path d="M199.502 235.062V233.136H196V232.224L199.682 227H200.493V232.224H201.585V233.136H200.493V235.062H199.502ZM199.502 232.225V228.597L196.974 232.225H199.502Z" fill="#FF0000" stroke="#FF0000" stroke-width="0.705586" stroke-miterlimit="22.9256"/>
<path d="M173 174.844L174.036 174.765C174.113 175.27 174.292 175.649 174.57 175.904C174.847 176.158 175.187 176.285 175.586 176.285C176.069 176.285 176.472 176.104 176.801 175.747C177.128 175.386 177.29 174.909 177.29 174.317C177.29 173.752 177.134 173.307 176.821 172.98C176.508 172.653 176.093 172.491 175.577 172.491C175.256 172.491 174.969 172.564 174.714 172.71C174.461 172.856 174.261 173.046 174.115 173.278L173.181 173.143L173.957 169H177.954V169.945H174.747L174.318 172.121C174.8 171.782 175.306 171.612 175.836 171.612C176.538 171.612 177.131 171.856 177.612 172.344C178.095 172.831 178.337 173.459 178.337 174.224C178.337 174.955 178.125 175.585 177.701 176.116C177.184 176.769 176.48 177.095 175.586 177.095C174.855 177.095 174.258 176.889 173.794 176.478C173.33 176.067 173.066 175.523 173 174.844Z" fill="#FF0000" stroke="#FF0000" stroke-width="0.705586" stroke-miterlimit="22.9256"/>
<path d="M201.191 114.004L200.211 114.083C200.123 113.694 199.997 113.411 199.833 113.235C199.566 112.951 199.233 112.81 198.839 112.81C198.522 112.81 198.24 112.899 197.998 113.075C197.687 113.302 197.443 113.632 197.261 114.068C197.08 114.505 196.987 115.126 196.979 115.931C197.218 115.569 197.51 115.299 197.855 115.124C198.201 114.948 198.561 114.86 198.94 114.86C199.601 114.86 200.164 115.104 200.629 115.59C201.093 116.076 201.326 116.703 201.326 117.474C201.326 117.981 201.217 118.449 200.999 118.885C200.78 119.321 200.481 119.652 200.098 119.884C199.718 120.114 199.284 120.231 198.8 120.231C197.976 120.231 197.302 119.927 196.781 119.321C196.261 118.715 196 117.714 196 116.322C196 114.764 196.289 113.631 196.865 112.923C197.368 112.308 198.045 112 198.899 112C199.534 112 200.055 112.178 200.461 112.533C200.866 112.887 201.11 113.378 201.191 114.004ZM197.137 117.484C197.137 117.825 197.211 118.151 197.355 118.463C197.499 118.774 197.702 119.011 197.959 119.174C198.218 119.337 198.492 119.42 198.783 119.42C199.205 119.42 199.566 119.251 199.864 118.914C200.162 118.575 200.312 118.118 200.312 117.538C200.312 116.981 200.164 116.541 199.87 116.221C199.575 115.899 199.199 115.738 198.744 115.738C198.297 115.738 197.916 115.899 197.605 116.221C197.293 116.541 197.137 116.962 197.137 117.484Z" fill="#FF0000" stroke="#FF0000" stroke-width="0.705586" stroke-miterlimit="22.9256"/>
<path d="M204.675 178.81H203.163L198.641 173.742V178.81H197.381V168.814H198.641V173.658L203.051 168.814H204.479L200.139 173.672L204.675 178.81ZM208.681 168.814C209.988 168.814 210.94 169.071 211.537 169.584C212.135 170.098 212.433 170.821 212.433 171.754C212.433 172.305 212.307 172.823 212.055 173.308C211.813 173.784 211.397 174.172 210.809 174.47C210.231 174.769 209.442 174.918 208.443 174.918H207.295V178.81H206.035V168.814H208.681ZM208.569 169.892H207.295V173.84H208.303C209.255 173.84 209.965 173.686 210.431 173.378C210.898 173.07 211.131 172.548 211.131 171.81C211.131 171.166 210.926 170.686 210.515 170.368C210.105 170.051 209.456 169.892 208.569 169.892ZM221.89 168.814L218.698 175.968C218.399 176.631 218.096 177.186 217.788 177.634C217.489 178.073 217.135 178.404 216.724 178.628C216.313 178.843 215.791 178.95 215.156 178.95C214.895 178.95 214.647 178.932 214.414 178.894C214.19 178.857 213.985 178.806 213.798 178.74V177.494C213.985 177.578 214.185 177.648 214.4 177.704C214.615 177.751 214.839 177.774 215.072 177.774C215.595 177.774 216.005 177.662 216.304 177.438C216.612 177.214 216.897 176.818 217.158 176.248L213.308 168.814H214.694L217.48 174.316C217.527 174.41 217.583 174.531 217.648 174.68C217.713 174.82 217.769 174.956 217.816 175.086H217.872C217.909 174.984 217.956 174.862 218.012 174.722C218.068 174.573 218.115 174.452 218.152 174.358L220.56 168.814H221.89ZM228.89 168.814V169.934H224.508V178.81H223.248V168.814H228.89ZM233.667 168.814H234.843V174.302C234.843 174.61 234.838 174.956 234.829 175.338C234.819 175.721 234.805 176.071 234.787 176.388C234.777 176.706 234.763 176.939 234.745 177.088H234.801L240.303 168.814H241.703V178.81H240.527V173.378C240.527 173.033 240.531 172.664 240.541 172.272C240.559 171.88 240.578 171.521 240.597 171.194C240.615 170.868 240.629 170.634 240.639 170.494H240.583L235.067 178.81H233.667V168.814ZM252.043 178.81H250.783V174.148H245.659V178.81H244.399V168.814H245.659V173.042H250.783V168.814H252.043V178.81ZM261.51 168.814V177.69H262.784V181.442H261.58V178.81H254.706V181.442H253.502V177.69H254.272C254.608 177.112 254.925 176.463 255.224 175.744C255.532 175.026 255.802 174.274 256.036 173.49C256.269 172.697 256.46 171.904 256.61 171.11C256.759 170.317 256.852 169.552 256.89 168.814H261.51ZM260.264 169.948H257.996C257.958 170.49 257.865 171.101 257.716 171.782C257.576 172.464 257.394 173.164 257.17 173.882C256.955 174.592 256.712 175.278 256.442 175.94C256.18 176.603 255.9 177.186 255.602 177.69H260.264V169.948ZM264.469 168.814H265.645V174.302C265.645 174.61 265.641 174.956 265.631 175.338C265.622 175.721 265.608 176.071 265.589 176.388C265.58 176.706 265.566 176.939 265.547 177.088H265.603L271.105 168.814H272.505V178.81H271.329V173.378C271.329 173.033 271.334 172.664 271.343 172.272C271.362 171.88 271.381 171.521 271.399 171.194C271.418 170.868 271.432 170.634 271.441 170.494H271.385L265.869 178.81H264.469V168.814ZM282.495 178.81H280.983L276.461 173.742V178.81H275.201V168.814H276.461V173.658L280.871 168.814H282.299L277.959 173.672L282.495 178.81ZM290.128 178.81L288.924 175.716H284.962L283.772 178.81H282.498L286.404 168.772H287.538L291.43 178.81H290.128ZM288.546 174.596L287.426 171.572C287.398 171.498 287.351 171.362 287.286 171.166C287.22 170.97 287.155 170.77 287.09 170.564C287.034 170.35 286.987 170.186 286.95 170.074C286.884 170.364 286.81 170.648 286.726 170.928C286.642 171.199 286.572 171.414 286.516 171.572L285.382 174.596H288.546ZM294.977 178.81H293.717V169.92H290.595V168.814H298.085V169.92H294.977V178.81ZM308.041 173.798C308.041 174.834 307.863 175.74 307.509 176.514C307.163 177.28 306.65 177.877 305.969 178.306C305.287 178.736 304.443 178.95 303.435 178.95C302.399 178.95 301.535 178.736 300.845 178.306C300.163 177.877 299.655 177.275 299.319 176.5C298.983 175.726 298.815 174.82 298.815 173.784C298.815 172.758 298.983 171.862 299.319 171.096C299.655 170.331 300.163 169.734 300.845 169.304C301.535 168.875 302.403 168.66 303.449 168.66C304.447 168.66 305.287 168.875 305.969 169.304C306.65 169.724 307.163 170.322 307.509 171.096C307.863 171.862 308.041 172.762 308.041 173.798ZM300.145 173.798C300.145 175.058 300.411 176.052 300.943 176.78C301.475 177.499 302.305 177.858 303.435 177.858C304.573 177.858 305.404 177.499 305.927 176.78C306.449 176.052 306.711 175.058 306.711 173.798C306.711 172.538 306.449 171.554 305.927 170.844C305.404 170.126 304.578 169.766 303.449 169.766C302.319 169.766 301.484 170.126 300.943 170.844C300.411 171.554 300.145 172.538 300.145 173.798ZM312.902 168.814C314.209 168.814 315.161 169.071 315.758 169.584C316.356 170.098 316.654 170.821 316.654 171.754C316.654 172.305 316.528 172.823 316.276 173.308C316.034 173.784 315.618 174.172 315.03 174.47C314.452 174.769 313.663 174.918 312.664 174.918H311.516V178.81H310.256V168.814H312.902ZM312.79 169.892H311.516V173.84H312.524C313.476 173.84 314.186 173.686 314.652 173.378C315.119 173.07 315.352 172.548 315.352 171.81C315.352 171.166 315.147 170.686 314.736 170.368C314.326 170.051 313.677 169.892 312.79 169.892Z" fill="black"/>
</g>
<defs>
<clipPath id="clip0">
<rect width="226.155" height="226.155" fill="white" transform="translate(143.264 60.6054)"/>
</clipPath>
</defs>
</svg>
